<svg xmlns="http://www.w3.org/2000/svg" width="364" height="148" viewBox="0 0 364 148"><path d="M56,38 L92,38" fill="none" stroke="#8ba4b8" stroke-width="3"/><path d="M128,38 L164,38" fill="none" stroke="#8ba4b8" stroke-width="3"/><path d="M200,38 L236,38" fill="none" stroke="#8ba4b8" stroke-width="3"/><path d="M272,38 L308,38" fill="none" stroke="#8ba4b8" stroke-width="3"/><path d="M182,56 L182,92" fill="none" stroke="#8ba4b8" stroke-width="3"/><g transform="translate(20 20) scale(0.36 0.36)"><rect x="6" y="6" width="88" height="88" fill="#243e53" stroke="#bbd4e3" stroke-width="6"/><rect x="24" y="24" width="52" height="52" fill="#162b3b" stroke="none" stroke-width="4"/></g><circle cx="38" cy="53" r="3" fill="#56e3a0"/><g transform="translate(92 20) scale(0.36 0.36)"><rect x="6" y="6" width="88" height="88" fill="#243e53" stroke="#bbd4e3" stroke-width="6"/><rect x="24" y="24" width="52" height="52" fill="#162b3b" stroke="none" stroke-width="4"/></g><g transform="translate(164 20) scale(0.36 0.36)"><rect x="6" y="6" width="88" height="88" fill="#243e53" stroke="#bbd4e3" stroke-width="6"/><rect x="24" y="24" width="52" height="52" fill="#162b3b" stroke="none" stroke-width="4"/></g><g transform="translate(164 92) scale(0.36 0.36)"><rect x="6" y="6" width="88" height="88" fill="#243e53" stroke="#bbd4e3" stroke-width="6"/><rect x="24" y="24" width="52" height="52" fill="#162b3b" stroke="none" stroke-width="4"/></g><g transform="translate(236 20) scale(0.36 0.36)"><rect x="6" y="6" width="88" height="88" fill="#243e53" stroke="#bbd4e3" stroke-width="6"/><rect x="24" y="24" width="52" height="52" fill="#162b3b" stroke="none" stroke-width="4"/></g><g transform="translate(308 20) scale(0.36 0.36)"><rect x="6" y="6" width="88" height="88" fill="#49351c" stroke="#ffd36d" stroke-width="6"/><ellipse cx="50" cy="43" rx="27" ry="25" fill="#ffd36d" stroke="none" stroke-width="4"/><rect x="34" y="55" width="32" height="23" fill="#ffd36d" stroke="none" stroke-width="4"/><ellipse cx="39" cy="44" rx="6" ry="8" fill="#49351c" stroke="none" stroke-width="4"/><ellipse cx="61" cy="44" rx="6" ry="8" fill="#49351c" stroke="none" stroke-width="4"/><polygon points="50,51 45,60 55,60" fill="#49351c" stroke="none" stroke-width="4"/><rect x="41" y="68" width="4" height="10" fill="#49351c" stroke="none" stroke-width="4"/><rect x="55" y="68" width="4" height="10" fill="#49351c" stroke="none" stroke-width="4"/></g><circle cx="56" cy="38" r="2" fill="#ffe3a4"/><circle cx="92" cy="38" r="2" fill="#ffe3a4"/><circle cx="128" cy="38" r="2" fill="#ffe3a4"/><circle cx="164" cy="38" r="2" fill="#ffe3a4"/><circle cx="200" cy="38" r="2" fill="#ffe3a4"/><circle cx="236" cy="38" r="2" fill="#ffe3a4"/><circle cx="272" cy="38" r="2" fill="#ffe3a4"/><circle cx="308" cy="38" r="2" fill="#ffe3a4"/><circle cx="182" cy="56" r="2" fill="#96d8ef"/><circle cx="182" cy="92" r="2" fill="#96d8ef"/></svg>